<svg width="156" height="56" viewBox="0 0 56 56" fill="none" xmlns="http://www.w3.org/2000/svg">
<path d="M20.16 15.624C16.352 15.624 13.048 18.256 13.048 23.856C13.048 31.864 19.6 36.568 23.24 37.016L24.08 34.832C21.952 33.432 20.16 31.024 20.328 29.624C22.736 29.456 26.656 28.112 26.656 22.904C26.712 18.928 24.472 15.624 20.16 15.624ZM36.4 15.624C32.592 15.624 29.288 18.256 29.288 23.856C29.288 31.864 35.84 36.568 39.48 37.016L40.32 34.832C38.192 33.432 36.4 31.024 36.568 29.624C38.976 29.456 42.896 28.112 42.896 22.904C42.952 18.928 40.712 15.624 36.4 15.624ZM7.56 42L18.088 48.44C14 50.736 7 54.264 0 56L7.56 42ZM28 0C43.176 0 56 11.648 56 25.648C56 40.824 43.176 51.296 28 51.296C12.824 51.296 0 40.824 0 25.648C0 11.648 12.824 0 28 0Z" fill="#D1D5DB"/>
</svg>
